<?xml version="1.0" encoding="UTF-8"?>
<svg data-bbox="1140.787 401.68 1226.308 1676.98" xmlns="http://www.w3.org/2000/svg" viewBox="0 0 3508 2481" fill-rule="evenodd" clip-rule="evenodd" stroke-linejoin="round" stroke-miterlimit="2" data-type="ugc">
    <g>
        <path d="M1340.247 1679.633h-12.152c-62.462 0-120.812-31.133-155.591-83.02-34.775-51.887-41.403-117.69-17.662-175.465 51.467-125.282 104.083-254.905 155.31-382.569L1280 1008.824l-28.521-54.803-10.08-60.953 8.921-59.659 26.608-54.135s42.821-44.244 42.881-44.33c59.38-44.614 209.251-157.673 379.252-290.322a202.9 202.9 0 0 1 167.464-38.411c58.76 12.627 108.888 50.658 136.81 103.689 23.236 44.04 81.521 153.683 153.767 282.231a208 208 0 0 1 3.222 5.96h19.46c60.568 0 117.395 29.284 152.54 78.609 35.148 49.32 44.279 112.594 24.51 169.84-45.215 130.927-53.836 134.234-148.614 388.533l33.381 32.497 28.756 54 10.719 60.238-7.952 59.23-25.414 54.09-41.648 44.814-1.133.884c-24.75 19.12-90.268 68.245-393.303 297.47a199.4 199.4 0 0 1-156.96 36.962 199.38 199.38 0 0 1-132.968-91.216l-.01-.02c-84.504-136.87-153.019-254.12-179.472-299.694l-.08-.14z" fill="#ffffff"/>
        <path d="M1328.099 1492.318h284.963c75.348-193.757 153.283-397.978 224.975-589.397h162.124c.91 0 1.748-.48 2.208-1.264a2.57 2.57 0 0 0 .02-2.542c-86.292-152.979-154.622-282.591-171.66-315.003a3.12 3.12 0 0 0-2.107-1.598 3.11 3.11 0 0 0-2.573.594c-196.444 153.478-368.553 282.716-411.034 314.568a1.79 1.79 0 0 0-.63 2.013c.245.74.934 1.24 1.714 1.24h150.58c-76.022 191.978-158.672 396.888-238.58 591.389" fill="#4573ff"/>
        <path d="M2179.777 985.384h-286.966c-70.788 191.44-147.739 395.665-222.133 589.397h-171.87a2.067 2.067 0 0 0-1.788 3.102c18.622 32.192 94.344 162.758 189.617 316.756a2.42 2.42 0 0 0 3.516.654c397.803-300.917 393.398-296.826 416.22-315.372a1.78 1.78 0 0 0 .549-1.968 1.78 1.78 0 0 0-1.669-1.18h-148.518c167.38-462.346 168.233-432.676 223.042-591.389" fill="#4b45ff"/>
    </g>
</svg>
