<?xml version="1.0" encoding="UTF-8"?>
<svg data-bbox="0 -0.044 21.4 37.044" viewBox="0 0 21.5 37" xmlns="http://www.w3.org/2000/svg" data-type="color">
    <g>
        <path d="M18.2 18.6h.4c.6 0 1.1-.4 1.4-.9 0-.2.1-.4.1-.6V1.5c0-.6-.4-1.1-.9-1.4-.6-.2-1.2-.1-1.6.3l-6.7 6.7L4 .4C3.6 0 2.9-.2 2.4.1c-.6.2-.9.8-.9 1.4v15.6c0 .4.1.8.4 1.1s.7.4 1.1.4h.4C1.3 20.5 0 23.3 0 26.3 0 32.2 4.8 37 10.7 37s10.7-4.8 10.7-10.7-1.3-5.8-3.3-7.7ZM17 5.1v8.3l-4.2-4.2L17 5ZM4.4 15.6V5.1l10.5 10.5zM10.7 34C6.4 34 3 30.5 3 26.3s3.5-7.7 7.7-7.7 7.7 3.5 7.7 7.7-3.5 7.7-7.7 7.7" fill="#ffffff" data-color="1"/>
        <path d="M11.6 22.2c-.2-.1-.6-.1-.8 0l-2.6 1.6c-.4.2-.5.7-.2 1.1.2.4.7.5 1.1.2l1.4-.9v5.7c0 .4.4.8.8.8s.8-.4.8-.8v-7.1c0-.3-.1-.5-.4-.7Z" fill="#ffffff" data-color="1"/>
    </g>
</svg>
