<?xml version="1.0" encoding="UTF-8"?>
<svg data-bbox="0 0 41.7 31.6" viewBox="0 0 41.7 31.5" xmlns="http://www.w3.org/2000/svg" data-type="color">
    <g>
        <path d="M35.1 31.5H6.6C3 31.5 0 28.6 0 24.9V10.5C0 6.9 2.9 4 6.6 4h5.8l.9-2c.5-1.2 1.7-2 2.9-2h9c1.3 0 2.5.8 3 1.9l.9 2.1h6c3.6 0 6.6 2.9 6.6 6.6V25c0 3.6-2.9 6.6-6.6 6.6ZM6.6 7.2c-1.8 0-3.4 1.5-3.4 3.4V25c0 1.9 1.5 3.4 3.4 3.4h28.5c1.8 0 3.4-1.5 3.4-3.4V10.6c0-1.9-1.5-3.4-3.4-3.4H27l-1.7-4h-9l-1.8 4z" fill="#ffffff" data-color="1"/>
        <path d="M20.7 26.9c-5 0-9.1-4.1-9.1-9.1s4.1-9.1 9.1-9.1 9.1 4.1 9.1 9.1-4.1 9.1-9.1 9.1m0-15c-3.2 0-5.9 2.6-5.9 5.9s2.6 5.9 5.9 5.9 5.9-2.6 5.9-5.9-2.6-5.9-5.9-5.9" fill="#ffffff" data-color="1"/>
    </g>
</svg>
