<?xml version="1.0" encoding="UTF-8"?>
<svg data-bbox="0 0 61 38.2" viewBox="0 0 61 38.2" xmlns="http://www.w3.org/2000/svg" data-type="color">
    <g>
        <path d="M26.6 18.2c0-1.1-.9-1.9-1.9-1.9s-1.9.9-1.9 1.9.9 1.9 1.9 1.9 1.9-.9 1.9-1.9" fill="#ffffff" data-color="1"/>
        <path d="M36.8 16.3c-1.1 0-1.9.9-1.9 1.9s.9 1.9 1.9 1.9 1.9-.9 1.9-1.9-.9-1.9-1.9-1.9" fill="#ffffff" data-color="1"/>
        <path d="M34.2 22c-3.7 2.1-6.5.2-6.7 0-.7-.5-1.6-.3-2.1.4s-.3 1.6.4 2.1c.1 0 2.1 1.4 5 1.4s3.1-.3 4.9-1.4c.7-.4 1-1.3.6-2s-1.3-1-2-.6Z" fill="#ffffff" data-color="1"/>
        <path d="M61 25.5h-3c0 .8-.6 1.4-1.3 1.4s-1.3-.6-1.3-1.4h-3c0 1.8 1.1 3.4 2.7 4-.6 3.2-3.3 5.6-6.7 5.6h-.5c-.8-2.4-2.5-4.4-4.7-5.6 1.5-1.3 2.4-3.2 2.4-5.3v-6.9c0-3.9-3.2-7.1-7.1-7.1h-6V7.6C34 7 35 5.6 35 3.9S33.2 0 31 0s-4 1.8-4 4 1 3.1 2.5 3.7v2.6h-6c-3.9 0-7.1 3.2-7.1 7.1v6.9c0 2 .8 3.7 2.1 5-2.5 1.1-4.4 3.3-5.3 5.9h-.5c-3.4 0-6.2-2.5-6.7-5.8 1.6-.6 2.8-2.2 2.8-4h-3c0 .8-.6 1.4-1.3 1.4s-1.3-.6-1.3-1.4H0c0 1.9 1.2 3.5 2.9 4.1.5 4.9 4.7 8.7 9.7 8.7h3c0-3.8 3-6.8 6.8-6.8h16c3.8 0 6.8 3.1 6.8 6.8h3c5 0 9.1-3.7 9.7-8.5 1.7-.6 2.9-2.2 2.9-4.1ZM31 3c.6 0 1 .5 1 1s-.5 1-1 1-1-.4-1-1 .5-1 1-1m-7.5 25.4c-2.3 0-4.1-1.8-4.1-4.1v-6.9c0-2.3 1.8-4.1 4.1-4.1h14.9c2.3 0 4.1 1.8 4.1 4.1v6.9c0 2.3-1.8 4.1-4.1 4.1z" fill="#ffffff" data-color="1"/>
    </g>
</svg>
